<svg width="58" height="58" viewBox="0 0 58 58" fill="none" xmlns="http://www.w3.org/2000/svg">
<path d="M47.9107 10.2768C42.8847 5.25049 36.2017 2.48248 29.0938 2.48248C21.9858 2.48248 15.3028 5.25049 10.2768 10.2768C5.25043 15.3028 2.48242 21.9859 2.48242 29.0938C2.48242 36.2018 5.25043 42.8848 10.2768 47.9108C15.3028 52.9371 21.9858 55.7051 29.0938 55.7051C36.2017 55.7051 42.8847 52.9371 47.9107 47.9108C52.9371 42.8848 55.7051 36.2018 55.7051 29.0938C55.7051 21.9859 52.9371 15.3028 47.9107 10.2768ZM29.8766 7.97724C35.1385 8.16988 39.9144 10.295 43.5156 13.663L29.8766 27.302V7.97724ZM28.3109 10.1323C28.0127 9.99486 27.682 9.91819 27.3328 9.91819C26.0376 9.91819 24.9845 10.971 24.9845 12.2662C24.9845 13.561 26.0376 14.6142 27.3328 14.6142C27.682 14.6142 28.0127 14.5372 28.3109 14.3998V27.302L14.6719 13.663C18.2732 10.295 23.049 8.16988 28.3109 7.97724V10.1323ZM28.1156 12.2662C28.1156 12.6976 27.7645 13.0491 27.3328 13.0491C26.901 13.0491 26.5502 12.6976 26.5502 12.2662C26.5502 11.8345 26.901 11.4836 27.3328 11.4836C27.7645 11.4836 28.1156 11.8345 28.1156 12.2662ZM27.2045 28.409H7.97361C8.14155 23.1582 10.2345 18.385 13.5687 14.7733L27.2045 28.409ZM12.8531 30.8548C12.8531 31.2865 12.502 31.6374 12.0702 31.6374C11.6385 31.6374 11.2877 31.2865 11.2877 30.8548C11.2877 30.4231 11.6385 30.0719 12.0702 30.0719C12.502 30.0719 12.8531 30.4231 12.8531 30.8548ZM9.89409 29.9745C9.78365 30.2467 9.72257 30.5433 9.72257 30.8548C9.72257 32.15 10.7757 33.2031 12.0702 33.2031C13.3651 33.2031 14.4185 32.15 14.4185 30.8548C14.4185 30.5439 14.3568 30.2467 14.2464 29.9745H27.2038L24.0937 33.0849C23.7936 32.1337 22.9028 31.4421 21.8536 31.4421C20.5594 31.4421 19.5059 32.4953 19.5059 33.7898C19.5059 34.839 20.1975 35.7298 21.1487 36.0296L13.6629 43.5156C10.3157 39.9368 8.19613 35.1977 7.98075 29.9745H9.89409ZM21.0714 33.7898C21.0714 33.3584 21.4222 33.0075 21.8536 33.0075C22.2853 33.0075 22.6365 33.3584 22.6365 33.7898C22.6365 34.2215 22.2853 34.5727 21.8536 34.5727C21.4222 34.5727 21.0714 34.2215 21.0714 33.7898ZM28.3109 31.0812V50.2104C23.0987 50.0197 18.3625 47.9322 14.7729 44.6188L28.3109 31.0812ZM29.8766 31.0812L36.4447 37.6496C35.3581 38.0134 34.5726 39.0399 34.5726 40.2471C34.5726 41.7576 35.8015 42.9868 37.312 42.9868C38.5191 42.9868 39.546 42.201 39.9098 41.1147L43.4146 44.6188C39.825 47.9322 35.0888 50.0197 29.8766 50.2104V31.0812ZM38.4857 40.2471C38.4857 40.8941 37.9591 41.4214 37.312 41.4214C36.6646 41.4214 36.138 40.8941 36.138 40.2471C36.138 39.5996 36.6646 39.0731 37.312 39.0731C37.9591 39.0731 38.4857 39.5996 38.4857 40.2471ZM30.9831 29.9745H50.2067C49.9914 35.1977 47.8718 39.9368 44.5246 43.5156L30.9831 29.9745ZM48.8567 22.0495C48.8567 22.697 48.3298 23.2239 47.6827 23.2239C47.0353 23.2239 46.5087 22.697 46.5087 22.0495C46.5087 21.4021 47.0353 20.8756 47.6827 20.8756C48.3298 20.8756 48.8567 21.4021 48.8567 22.0495ZM47.6827 19.3101C46.1722 19.3101 44.943 20.539 44.943 22.0495C44.943 23.5601 46.1722 24.7893 47.6827 24.7893C48.4305 24.7893 49.1091 24.4875 49.6042 23.9999C49.9566 25.4192 50.1658 26.894 50.2139 28.4087H30.9831L44.6188 14.773C45.8753 16.1341 46.955 17.6596 47.8224 19.314C47.7759 19.3114 47.7295 19.3101 47.6827 19.3101ZM44.6305 12.5481C40.5965 8.7546 35.4087 6.59697 29.8766 6.41051V4.06123C36.0357 4.24932 41.8134 6.65057 46.2917 10.8866L44.6305 12.5481ZM28.3109 6.41051C22.7788 6.59697 17.591 8.7546 13.557 12.5481L11.8958 10.8866C16.3741 6.65057 22.1518 4.24932 28.3109 4.06123V6.41051ZM12.4535 13.6585C8.69671 17.7018 6.56963 22.8863 6.40688 28.4087H4.0576C4.22164 22.2591 6.59301 16.4853 10.7923 11.9972L12.4535 13.6585ZM6.41435 29.9745C6.62258 35.4699 8.77663 40.6206 12.5481 44.6305L10.8868 46.2918C6.67293 41.8372 4.27524 36.0972 4.06474 29.9745H6.41435ZM13.6584 45.734C17.678 49.4688 22.8249 51.5923 28.3109 51.7771V54.1264C22.1976 53.9399 16.4612 51.5725 11.9971 47.3953L13.6584 45.734ZM29.8766 51.7771C35.3626 51.5923 40.5095 49.4684 44.5291 45.7337L46.1904 47.3953C41.7263 51.5725 35.9899 53.9399 29.8766 54.1264V51.7771ZM45.6394 44.6305C49.4109 40.6206 51.5649 35.4699 51.7732 29.9741H54.1228C53.9126 36.0972 51.5146 41.8372 47.301 46.2915L45.6394 44.6305ZM51.7806 28.409C51.6179 22.8863 49.4908 17.7018 45.734 13.6588L47.3952 11.9972C51.5945 16.4853 53.9659 22.2591 54.1299 28.409H51.7806Z" fill="#FF9100"/>
<path d="M22.8327 41.8122C21.5378 41.8122 20.4844 42.8656 20.4844 44.1605C20.4844 45.4556 21.5378 46.5088 22.8327 46.5088C24.1272 46.5088 25.1803 45.4556 25.1803 44.1605C25.1803 42.8656 24.1272 41.8122 22.8327 41.8122ZM22.8327 44.943C22.401 44.943 22.0498 44.5922 22.0498 44.1605C22.0498 43.7287 22.401 43.3776 22.8327 43.3776C23.2644 43.3776 23.6152 43.7287 23.6152 44.1605C23.6152 44.5922 23.2644 44.943 22.8327 44.943Z" fill="#FF9100"/>
<path d="M14.2233 22.2454C15.5185 22.2454 16.5716 21.1919 16.5716 19.8974C16.5716 18.6026 15.5185 17.5491 14.2233 17.5491C12.9285 17.5491 11.875 18.6026 11.875 19.8974C11.875 21.1919 12.9285 22.2454 14.2233 22.2454ZM14.2233 19.1146C14.655 19.1146 15.0059 19.4657 15.0059 19.8974C15.0059 20.3288 14.655 20.68 14.2233 20.68C13.7916 20.68 13.4404 20.3288 13.4404 19.8974C13.4404 19.4657 13.7916 19.1146 14.2233 19.1146Z" fill="#FF9100"/>
<path d="M33.986 15.9837C32.6908 15.9837 31.6377 17.0372 31.6377 18.3317C31.6377 19.6265 32.6908 20.68 33.986 20.68C35.2808 20.68 36.3343 19.6265 36.3343 18.3317C36.3343 17.0372 35.2808 15.9837 33.986 15.9837ZM33.986 19.1146C33.5543 19.1146 33.2034 18.7634 33.2034 18.3317C33.2034 17.9003 33.5543 17.5491 33.986 17.5491C34.4177 17.5491 34.7689 17.9003 34.7689 18.3317C34.7689 18.7634 34.4177 19.1146 33.986 19.1146Z" fill="#FF9100"/>
<path d="M22.0498 18.3317C22.0498 19.6265 23.1033 20.68 24.3981 20.68C25.6926 20.68 26.7458 19.6265 26.7458 18.3317C26.7458 17.0372 25.6926 15.9837 24.3981 15.9837C23.1033 15.9837 22.0498 17.0372 22.0498 18.3317ZM24.3981 17.5491C24.8295 17.5491 25.1803 17.9003 25.1803 18.3317C25.1803 18.7634 24.8295 19.1146 24.3981 19.1146C23.9664 19.1146 23.6152 18.7634 23.6152 18.3317C23.6152 17.9003 23.9664 17.5491 24.3981 17.5491Z" fill="#FF9100"/>
<path d="M45.335 31.0507C44.0405 31.0507 42.9873 32.1038 42.9873 33.3983C42.9873 34.6935 44.0405 35.7467 45.335 35.7467C46.6298 35.7467 47.6833 34.6935 47.6833 33.3983C47.6833 32.1038 46.6298 31.0507 45.335 31.0507ZM45.335 34.1812C44.9032 34.1812 44.5524 33.8301 44.5524 33.3983C44.5524 32.9666 44.9032 32.6158 45.335 32.6158C45.7667 32.6158 46.1178 32.9666 46.1178 33.3983C46.1178 33.8301 45.7667 34.1812 45.335 34.1812Z" fill="#FF9100"/>
<path d="M21.2673 14.4186C21.2673 14.2026 21.4427 14.0272 21.6584 14.0272C22.7375 14.0272 23.6152 13.1491 23.6152 12.0703V10.8963H22.0498V12.0703C22.0498 12.2863 21.8744 12.4617 21.6584 12.4617C20.5796 12.4617 19.7021 13.3395 19.7021 14.4186V15.5926H21.2673V14.4186Z" fill="#FF9100"/>
<path d="M32.9919 12.8736C32.9851 13.396 33.1822 13.8904 33.547 14.2646C33.9115 14.6388 34.4001 14.849 34.9224 14.8558L36.0964 14.8714L36.1172 13.306L34.9432 13.2904C34.8022 13.2888 34.7103 13.2157 34.6681 13.1725C34.6258 13.129 34.5554 13.0351 34.5573 12.8941C34.5713 11.8153 33.7052 10.9259 32.6264 10.9119L31.4524 10.8963L31.4316 12.4617L32.6056 12.4773C32.8217 12.4799 32.9948 12.6579 32.9919 12.8736Z" fill="#FF9100"/>
<path d="M43.5741 25.3769C43.2609 24.9585 42.8032 24.6873 42.286 24.6135C41.7682 24.5391 41.2534 24.6707 40.8346 24.9845L39.8955 25.6888L40.8343 26.9414L41.7734 26.2371C41.8865 26.1523 42.0038 26.1543 42.0639 26.163C42.1236 26.1715 42.237 26.2027 42.3215 26.3157C42.7054 26.828 43.2937 27.0986 43.8895 27.0979C44.2978 27.0979 44.7094 26.9713 45.0606 26.7081L46 26.0042L45.0612 24.7513L44.1221 25.4552C43.9493 25.5848 43.7033 25.5494 43.5741 25.3769Z" fill="#FF9100"/>
<path d="M14.0819 36.4087C14.1846 36.9209 14.4809 37.3627 14.9155 37.6528C15.241 37.8695 15.6146 37.9819 15.9966 37.9819C16.1259 37.9819 16.2558 37.9689 16.3848 37.9429L17.536 37.7126L17.2291 36.178L16.0778 36.408C15.866 36.4502 15.6594 36.3125 15.6168 36.101C15.4054 35.0433 14.3724 34.355 13.314 34.5668L12.1631 34.7974L12.4704 36.332L13.6216 36.1014C13.8331 36.0601 14.0397 36.1969 14.0819 36.4087Z" fill="#FF9100"/>
<path d="M33.9106 44.6052C33.9034 44.8209 33.7215 44.9898 33.5065 44.9833C32.9851 44.967 32.4864 45.1535 32.1048 45.5108C31.7231 45.8682 31.5038 46.3525 31.4866 46.8752L31.4482 48.0482L33.0127 48.0999L33.051 46.9262C33.0582 46.7105 33.2407 46.5425 33.4548 46.5477C34.5336 46.5828 35.4393 45.735 35.475 44.6565L35.5134 43.4828L33.9489 43.4318L33.9106 44.6052Z" fill="#FF9100"/>
<path d="M14.2227 25.3759H15.7881V26.9414H14.2227V25.3759Z" fill="#FF9100"/>
<path d="M9.52734 25.3759H11.0928V26.9414H9.52734V25.3759Z" fill="#FF9100"/>
<path d="M11.0928 23.8105H12.6579V25.3759H11.0928V23.8105Z" fill="#FF9100"/>
<path d="M22.6367 26.1588H24.2021V27.7243H22.6367V26.1588Z" fill="#FF9100"/>
<path d="M19.3101 26.9414H20.484V25.3759H19.3101C19.0944 25.3759 18.9189 25.2005 18.9189 24.9845C18.9189 24.7688 19.0944 24.5934 19.3101 24.5934H20.484V23.0283H19.3101C18.2312 23.0283 17.3535 23.9057 17.3535 24.9845C17.3535 26.0636 18.2312 26.9414 19.3101 26.9414Z" fill="#FF9100"/>
<path d="M39.7414 33.3174L40.5717 34.1477L41.6787 33.0407L40.8484 32.2107C40.0854 31.4476 38.8441 31.4476 38.0811 32.2107C37.318 32.9738 37.318 34.215 38.0811 34.978L38.9114 35.808L40.0181 34.701L39.1878 33.871C39.0352 33.7183 39.0352 33.4698 39.1878 33.3174C39.3405 33.1648 39.5893 33.1648 39.7414 33.3174Z" fill="#FF9100"/>
<path d="M25.1807 21.4629H26.7461V23.0283H25.1807V21.4629Z" fill="#FF9100"/>
<path d="M16.9619 12.8532H18.527V14.4186H16.9619V12.8532Z" fill="#FF9100"/>
<path d="M31.4424 21.4629H33.0078V23.0283H31.4424V21.4629Z" fill="#FF9100"/>
<path d="M42.3994 19.1146H43.9649V20.68H42.3994V19.1146Z" fill="#FF9100"/>
<path d="M40.834 20.68H42.3994V22.2454H40.834V20.68Z" fill="#FF9100"/>
<path d="M36.1387 25.5718H37.7041V27.1369H36.1387V25.5718Z" fill="#FF9100"/>
<path d="M34.5732 30.8548H36.1387V32.4202H34.5732V30.8548Z" fill="#FF9100"/>
<path d="M36.9209 11.2878H38.486V12.8532H36.9209V11.2878Z" fill="#FF9100"/>
<path d="M38.4863 12.8532H40.0518V14.4186H38.4863V12.8532Z" fill="#FF9100"/>
<path d="M41.6172 36.334H43.1829V37.8991H41.6172V36.334Z" fill="#FF9100"/>
<path d="M43.9648 39.4645H45.5303V41.0299H43.9648V39.4645Z" fill="#FF9100"/>
<path d="M24.7899 37.1162C23.7104 37.1162 22.833 37.9942 22.833 39.073V40.247H24.3984V39.073C24.3984 38.8574 24.5739 38.6816 24.7899 38.6816C25.0053 38.6816 25.1807 38.8574 25.1807 39.073V40.247H26.7461V39.073C26.7461 37.9942 25.8687 37.1162 24.7899 37.1162Z" fill="#FF9100"/>
<path d="M25.1807 34.7685H26.7461V36.334H25.1807V34.7685Z" fill="#FF9100"/>
<path d="M17.3535 43.3776H18.9189V44.943H17.3535V43.3776Z" fill="#FF9100"/>
<path d="M15.7881 31.6374H17.3535V33.2031H15.7881V31.6374Z" fill="#FF9100"/>
<path d="M12.6572 38.6816H14.2227V40.2471H12.6572V38.6816Z" fill="#FF9100"/>
<path d="M25.1807 47.2913H26.7461V48.8568H25.1807V47.2913Z" fill="#FF9100"/>
<path d="M31.4424 37.1162H33.0078V38.6816H31.4424V37.1162Z" fill="#FF9100"/>
<path d="M31.4424 41.0299H33.0078V42.595H31.4424V41.0299Z" fill="#FF9100"/>
<path d="M38.4863 44.1605H40.0518V45.7259H38.4863V44.1605Z" fill="#FF9100"/>
</svg>
