<svg width="109" height="109" viewBox="0 0 109 109" fill="none" xmlns="http://www.w3.org/2000/svg">
<path d="M109 54.5C109 84.5995 84.5995 109 54.5 109C24.4005 109 0 84.5995 0 54.5C0 24.4005 24.4005 0 54.5 0C84.5995 0 109 24.4005 109 54.5ZM11.5352 54.5C11.5352 78.2288 30.7712 97.4648 54.5 97.4648C78.2288 97.4648 97.4648 78.2288 97.4648 54.5C97.4648 30.7712 78.2288 11.5352 54.5 11.5352C30.7712 11.5352 11.5352 30.7712 11.5352 54.5Z" fill="#FF9100" fill-opacity="0.16"/>
<path d="M109 54.5C109 63.4626 106.79 72.2868 102.565 80.1911C98.3398 88.0954 92.2307 94.8358 84.7786 99.8151C77.3265 104.794 68.7614 107.859 59.8419 108.738C50.9225 109.616 41.9241 108.281 33.6438 104.851C25.3634 101.422 18.0567 96.0026 12.3709 89.0744C6.68513 82.1463 2.79572 73.9228 1.0472 65.1324C-0.70131 56.3421 -0.254948 47.2561 2.34675 38.6795C4.94845 30.1028 9.62518 22.3002 15.9627 15.9627L24.1193 24.1193C19.1231 29.1154 15.4363 35.2666 13.3852 42.028C11.3342 48.7893 10.9823 55.9522 12.3607 62.882C13.7392 69.8119 16.8054 76.2948 21.2877 81.7566C25.7701 87.2184 31.5303 91.4904 38.0581 94.1943C44.5858 96.8982 51.6797 97.9505 58.7113 97.2579C65.7429 96.5654 72.4951 94.1494 78.37 90.224C84.2448 86.2985 89.0609 80.9848 92.3916 74.7535C95.7223 68.5222 97.4648 61.5656 97.4648 54.5H109Z" fill="#FF9100"/>
<path d="M109 54.5C109 63.4626 106.79 72.2868 102.565 80.1911C98.3398 88.0954 92.2307 94.8358 84.7786 99.8151C77.3265 104.794 68.7614 107.859 59.8419 108.738C50.9225 109.616 41.9241 108.281 33.6438 104.851C25.3634 101.422 18.0567 96.0026 12.3709 89.0744C6.68513 82.1463 2.79572 73.9228 1.0472 65.1324C-0.70131 56.3421 -0.254948 47.2561 2.34675 38.6795C4.94845 30.1028 9.62518 22.3002 15.9627 15.9627L24.1193 24.1193C19.1231 29.1154 15.4363 35.2666 13.3852 42.028C11.3342 48.7893 10.9823 55.9522 12.3607 62.882C13.7392 69.8119 16.8054 76.2948 21.2877 81.7566C25.7701 87.2184 31.5303 91.4904 38.0581 94.1943C44.5858 96.8982 51.6797 97.9505 58.7113 97.2579C65.7429 96.5654 72.4951 94.1494 78.37 90.224C84.2448 86.2985 89.0609 80.9848 92.3916 74.7535C95.7223 68.5222 97.4648 61.5656 97.4648 54.5H109Z" fill="url(#paint0_linear)"/>
<defs>
<linearGradient id="paint0_linear" x1="54.5" y1="0" x2="54.5" y2="109" gradientUnits="userSpaceOnUse">
<stop stop-color="white"/>
<stop offset="1" stop-color="white" stop-opacity="0"/>
</linearGradient>
</defs>
</svg>
